<svg xmlns="http://www.w3.org/2000/svg" viewBox="0 0 24 24" width="24" height="24">
  <!-- 文件夹轮廓 -->
  <path d="M20,6h-8l-2-2H4C2.9,4,2,4.9,2,6v12c0,1.1,0.9,2,2,2h16c1.1,0,2-0.9,2-2V8C22,6.9,21.1,6,20,6z" 
        fill="none" stroke="#333333" stroke-width="1.5"/>
  
  <!-- 打开的文件夹 -->
  <path d="M2,10h20v8c0,1.1-0.9,2-2,2H4c-1.1,0-2-0.9-2-2V10z" 
        fill="none" stroke="#333333" stroke-width="1.5"/>
  
  <!-- 箭头（指向文件夹） -->
  <path d="M12,18v-4 M9,16l3,2l3-2" 
        fill="none" stroke="#333333" stroke-width="1.5" stroke-linecap="round" stroke-linejoin="round"/>
</svg>