<svg xmlns="http://www.w3.org/2000/svg" 
     width="24" height="24" fill="none" 
     viewBox="0 0 24 24" stroke-width="2" stroke="currentColor">
  <!--
    Material Symbols: "extension"
    License: Apache 2.0
    Source: https://fonts.google.com/icons?icon.query=extension
  -->
  <path d="M16.5 4a2.5 2.5 0 0 1 2.45 2H21
           a3 3 0 0 1 3 3v1a3 3 0 0 1-3 3h-2
           v2h2a3 3 0 0 1 3 3v1
           a3 3 0 0 1-3 3h-2.05
           a2.5 2.5 0 0 1-4.9 0H12
           a3 3 0 0 1-3-3v-2H7a3 3 0 0 1-3-3
           v-1a3 3 0 0 1 3-3h2V9a3 3 0 0 1 3-3
           h1.55A2.5 2.5 0 0 1 16.5 4Z"/>
</svg>
