<svg xmlns="http://www.w3.org/2000/svg" 
     width="24" height="24" fill="none" 
     viewBox="0 0 24 24" stroke-width="2" stroke="currentColor">
  <!-- 
    Material Symbols: "settings"
    License: Apache 2.0
    Source: https://fonts.google.com/icons?icon.query=settings
  -->
  <path d="M19.43 12.98c.04-.32.07-.65.07-.98s-.03-.66-.08-.98l2.11-1.65
           c.19-.15.24-.42.12-.65l-2-3.46a.505.505 0 0 0-.61-.22l-2.49 1
           a7.03 7.03 0 0 0-1.71-.99l-.38-2.65A.498.498 0 0 0 13 3h-4
           c-.25 0-.46.18-.49.43l-.38 2.65
           c-.61.25-1.17.58-1.71.99l-2.49-1
           a.51.51 0 0 0-.61.22l-2 3.46
           a.49.49 0 0 0 .12.65l2.11 1.65
           c-.05.32-.08.65-.08.98s.03.66.08.98L2.59 14.63
           a.49.49 0 0 0-.12.65l2 3.46
           c.13.23.39.31.61.22l2.49-1
           c.54.41 1.1.75 1.71.99l.38 2.65
           c.03.25.24.43.49.43h4
           c.25 0 .46-.18.49-.43l.38-2.65
           c.61-.24 1.17-.58 1.71-.99l2.49 1
           c.23.09.48 0 .61-.22l2-3.46
           a.51.51 0 0 0-.12-.65l-2.11-1.65ZM12 15.5
           c-1.93 0-3.5-1.57-3.5-3.5
           s1.57-3.5 3.5-3.5
           s3.5 1.57 3.5 3.5
           s-1.57 3.5-3.5 3.5Z"/>
</svg>
